<?xml version="1.0" encoding="UTF-8" standalone="no"?><!DOCTYPE svg PUBLIC "-//W3C//DTD SVG 1.1//EN" "http://www.w3.org/Graphics/SVG/1.1/DTD/svg11.dtd"><svg width="100%" height="100%" viewBox="0 0 151913 148005" version="1.1" xmlns="http://www.w3.org/2000/svg" xmlns:xlink="http://www.w3.org/1999/xlink" xml:space="preserve" xmlns:serif="http://www.serif.com/" style="fill-rule:evenodd;clip-rule:evenodd;stroke-linejoin:round;stroke-miterlimit:2;"><g><g><path d="M75840.8,-0.225c-41879.6,0.017 -75839.2,33952.4 -75839.2,75838.3c-0,33507.8 21730.4,61935.8 51863.8,71963.8c3790.22,702.03 5181.71,-1645.19 5181.71,-3648.3c-0,-1808.45 -70.313,-7782.62 -103.021,-14119.7c-21098.6,4587.67 -25550.7,-8948.04 -25550.7,-8948.04c-3449.88,-8765.92 -8420.58,-11096.8 -8420.58,-11096.8c-6880.92,-4706.96 518.663,-4610.25 518.663,-4610.25c7615.58,533.7 11625.6,7815.25 11625.6,7815.25c6764.12,11594.2 17741.7,8242.25 22069.5,6304.5c680.696,-4900.42 2646.13,-8248.54 4814.96,-10141.2c-16844.9,-1917.75 -34552.6,-8420.67 -34552.6,-37480.2c-0,-8279.96 2962.6,-15045.3 7814.04,-20356.4c-787.466,-1911.46 -3383.32,-9623.75 734.667,-20070c0.004,-0 6368.5,-2038.26 20861.3,7773.79c6049.5,-1680.35 12537.3,-2523.09 18982.5,-2551.95c6445.12,28.854 12937.9,871.596 18998.8,2551.95c14475.1,-9812.08 20834.9,-7773.79 20834.9,-7773.79c4128.04,10446.2 1530.88,18158.5 743.488,20070c4862.71,5311.04 7805.21,12076.4 7805.21,20356.4c0,29128.7 -17741.7,35542.4 -34629.3,37419.8c2720.21,2353.52 5144.04,6968.83 5144.04,14044.4c-0,10146.1 -87.884,18313 -87.884,20812.2c0,2018.23 1365.09,4383.04 5209.33,3638.32c30117,-10039.4 51819.6,-38457.3 51819.6,-71953.8c-0.004,-41885.8 -33954.9,-75838.3 -75838.3,-75838.3l-0.33,0.225l0,-0.158Z" style="fill:#d15;"/></g></g></svg>