<?xml version="1.0" encoding="UTF-8" standalone="no"?><!DOCTYPE svg PUBLIC "-//W3C//DTD SVG 1.1//EN" "http://www.w3.org/Graphics/SVG/1.1/DTD/svg11.dtd"><svg width="100%" height="100%" viewBox="0 0 632971 616688" version="1.1" xmlns="http://www.w3.org/2000/svg" xmlns:xlink="http://www.w3.org/1999/xlink" xml:space="preserve" xmlns:serif="http://www.serif.com/" style="fill-rule:evenodd;clip-rule:evenodd;stroke-linejoin:round;stroke-miterlimit:2;"><g><g><path d="M316003,-0.938c-174498,0.071 -315997,141468 -315997,315993c-0,139616 90543.3,258066 216099,299849c15792.6,2925.12 21590.5,-6854.96 21590.5,-15201.2c-0,-7535.21 -292.971,-32427.6 -429.254,-58832.1c-87910.8,19115.3 -106461,-37283.5 -106461,-37283.5c-14374.5,-36524.7 -35085.8,-46236.7 -35085.8,-46236.7c-28670.5,-19612.3 2161.1,-19209.4 2161.1,-19209.4c31731.6,2223.75 48440,32563.5 48440,32563.5c28183.8,48309.2 73923.8,34342.7 91956.2,26268.8c2836.23,-20418.4 11025.5,-34368.9 20062.3,-42255c-70187.1,-7990.62 -143969,-35086.1 -143969,-156168c0,-34499.8 12344.2,-62688.8 32558.5,-84818.3c-3281.11,-7964.42 -14097.2,-40099 3061.11,-83625c0.016,0 26535.4,-8492.75 86922.1,32390.8c25206.2,-7001.46 52238.8,-10512.9 79093.8,-10633.1c26854.7,120.225 53907.9,3631.65 79161.7,10633.1c60312.9,-40883.7 86812.1,-32390.8 86812.1,-32390.8c17200.2,43525.8 6378.67,75660.4 3097.87,83625c20261.3,22129.3 32521.7,50318.3 32521.7,84818.3c-0,121370 -73923.8,148093 -144289,155916c11334.2,9806.33 21433.5,29036.8 21433.5,58518.3c-0,42275.4 -366.183,76304.2 -366.183,86717.5c-0,8409.29 5687.88,18262.7 21705.5,15159.7c125488,-41830.8 215915,-160239 215915,-299808c-0.016,-174524 -141479,-315993 -315993,-315993l-1.375,0.938l-0,-0.659l-0.805,-0.195Z" style="fill:#fff;"/></g></g></svg>