<?xml version="1.0" encoding="UTF-8" standalone="no"?><!DOCTYPE svg PUBLIC "-//W3C//DTD SVG 1.1//EN" "http://www.w3.org/Graphics/SVG/1.1/DTD/svg11.dtd"><svg width="100%" height="100%" viewBox="0 0 7242 7242" version="1.1" xmlns="http://www.w3.org/2000/svg" xmlns:xlink="http://www.w3.org/1999/xlink" xml:space="preserve" xmlns:serif="http://www.serif.com/" style="fill-rule:evenodd;clip-rule:evenodd;stroke-linejoin:round;stroke-miterlimit:2;"><path d="M3616.89,651.979c965.712,-0.071 1080.22,3.629 1461.81,21.058c980.187,44.621 1438.09,509.688 1482.64,1482.64c17.517,381.284 20.834,495.796 20.834,1461.51c-0,966.008 -3.613,1080.3 -20.833,1461.51c-44.913,972.083 -501.513,1438.09 -1482.64,1482.64c-381.583,17.516 -495.504,21.129 -1461.81,21.129c-965.713,-0 -1080.22,-3.613 -1461.51,-21.129c-982.571,-44.913 -1438,-512.067 -1482.64,-1482.92c-17.5,-381.304 -21.125,-495.521 -21.125,-1461.53c-0,-965.713 3.904,-1079.93 21.125,-1461.51c44.916,-972.658 501.512,-1438 1482.64,-1482.64c381.579,-17.15 495.796,-20.763 1461.51,-20.763Zm-0,-651.979c-982.275,0 -1105.24,4.2 -1491.03,21.7c-1313.59,60.263 -2043.62,789.063 -2103.87,2103.8c-17.796,386.146 -21.996,509.113 -21.996,1491.39c-0,982.291 4.2,1105.56 21.7,1491.41c60.262,1313.5 789.062,2043.54 2103.8,2103.8c386.146,17.5 509.113,21.704 1491.39,21.704c982.275,0 1105.56,-4.204 1491.39,-21.704c1312.29,-60.258 2044.13,-789.062 2103.52,-2103.8c17.796,-385.85 22,-509.117 22,-1491.41c0,-982.275 -4.204,-1105.24 -21.704,-1491.03c-59.096,-1312.36 -788.783,-2043.61 -2103.53,-2103.87c-386.125,-17.796 -509.392,-21.996 -1491.68,-21.996Zm-0,1759.62c-1025.67,-0 -1857.28,831.6 -1857.28,1857.28c-0,1025.7 831.6,1857.57 1857.28,1857.57c1025.68,-0 1857.28,-831.596 1857.28,-1857.57c-0,-1025.67 -831.58,-1857.28 -1857.28,-1857.28Zm-0,3062.94c-665.796,0 -1205.66,-539.566 -1205.66,-1205.66c0,-665.796 539.863,-1205.64 1205.66,-1205.64c665.8,0 1205.66,539.846 1205.66,1205.64c0,666.096 -539.862,1205.66 -1205.66,1205.66Zm1930.85,-3570.25c-239.946,0.088 -434.392,194.446 -434.392,434.117c-0,239.583 194.446,434.025 434.392,434.025c239.583,0 433.666,-194.442 433.666,-434.025c0,-239.671 -194.083,-434.029 -433.666,-434.029l-0,-0.088Z" style="fill:#d15;fill-rule:nonzero;"/></svg>