<?xml version="1.0" encoding="UTF-8" standalone="no"?><!DOCTYPE svg PUBLIC "-//W3C//DTD SVG 1.1//EN" "http://www.w3.org/Graphics/SVG/1.1/DTD/svg11.dtd"><svg width="100%" height="100%" viewBox="0 0 30175 30175" version="1.1" xmlns="http://www.w3.org/2000/svg" xmlns:xlink="http://www.w3.org/1999/xlink" xml:space="preserve" xmlns:serif="http://www.serif.com/" style="fill-rule:evenodd;clip-rule:evenodd;stroke-linejoin:round;stroke-miterlimit:2;"><path d="M15070.4,2716.58c4023.8,-0.296 4500.92,15.121 6090.88,87.742c4084.11,185.921 5992.04,2123.7 6177.67,6177.67c72.987,1588.68 86.808,2065.82 86.808,6089.62c0,4025.03 -15.054,4501.25 -86.804,6089.62c-187.138,4050.35 -2089.64,5992.04 -6177.67,6177.67c-1589.93,72.983 -2064.6,88.038 -6090.88,88.038c-4023.8,-0 -4500.92,-15.055 -6089.62,-88.038c-4094.05,-187.137 -5991.67,-2133.61 -6177.67,-6178.83c-72.917,-1588.77 -88.021,-2064.67 -88.021,-6089.71c-0,-4023.8 16.266,-4499.71 88.021,-6089.62c187.149,-4052.74 2089.63,-5991.67 6177.67,-6177.67c1589.91,-71.459 2065.82,-86.513 6089.62,-86.513l-0.004,0.021Zm0,-2716.58c-4092.81,-0 -4605.17,17.5 -6212.62,90.417c-5473.29,251.095 -8515.08,3287.76 -8766.12,8765.83c-74.15,1608.94 -91.65,2121.3 -91.65,6214.12c-0,4092.88 17.5,4606.5 90.417,6214.21c251.091,5472.92 3287.76,8514.75 8765.83,8765.83c1608.94,72.916 2121.3,90.433 6214.12,90.433c4092.81,-0 4606.5,-17.517 6214.12,-90.433c5467.88,-251.075 8517.21,-3287.76 8764.67,-8765.83c74.15,-1607.71 91.666,-2121.32 91.666,-6214.21c0,-4092.81 -17.516,-4605.17 -90.433,-6212.62c-246.233,-5468.17 -3286.6,-8515.04 -8764.71,-8766.12c-1608.86,-74.15 -2122.47,-91.65 -6215.33,-91.65l0.042,0.025Zm-0,7331.75c-4273.62,-0 -7738.67,3465 -7738.67,7738.67c0,4273.75 3465,7739.88 7738.67,7739.88c4273.67,-0 7738.67,-3464.98 7738.67,-7739.88c-0,-4273.62 -3464.92,-7738.67 -7738.67,-7738.67Zm0,12762.2c-2774.15,-0 -5023.58,-2248.19 -5023.58,-5023.58c-0,-2774.15 2249.43,-5023.5 5023.58,-5023.5c2774.17,-0 5023.58,2249.36 5023.58,5023.5c0,2775.4 -2249.43,5023.58 -5023.58,5023.58Zm8045.21,-14876c-999.775,0.367 -1809.97,810.192 -1809.97,1808.82c-0,998.263 810.191,1808.44 1809.97,1808.44c998.263,-0 1806.94,-810.175 1806.94,-1808.44c0,-998.629 -808.679,-1808.45 -1806.94,-1808.45l0,-0.367Z" style="fill:#fff;fill-rule:nonzero;"/></svg>