<?xml version="1.0" encoding="UTF-8" standalone="no"?><!DOCTYPE svg PUBLIC "-//W3C//DTD SVG 1.1//EN" "http://www.w3.org/Graphics/SVG/1.1/DTD/svg11.dtd"><svg width="100%" height="100%" viewBox="0 0 571480 571480" version="1.1" xmlns="http://www.w3.org/2000/svg" xmlns:xlink="http://www.w3.org/1999/xlink" xml:space="preserve" xmlns:serif="http://www.serif.com/" style="fill-rule:evenodd;clip-rule:evenodd;stroke-linejoin:round;stroke-miterlimit:2;"><g><path d="M309446,256637l0,-835.141c-170.779,280.087 -406.892,560.104 -555.033,835.141l555.033,0Z" style="fill:#d15;"/><path d="M-0.138,0l0.001,571421l571421,0l-0,-571421l-571421,0Zm177732,474721l-84778.8,0l0,-255061l84778.8,0l-0,255061Zm-42389.2,-289875l-560.246,0c-28439.1,0 -46872.9,-19592.9 -46872.9,-44082.5c0,-25026.9 18972.4,-44064.6 47987.9,-44064.6c29021.9,0 46856.2,19037.8 47411.7,44064.6c-0,24489.4 -18389.8,44082.5 -47966.7,44082.5l0.246,0Zm348165,289875l-84800.8,0l-0,-136459c-0,-34274 -12252.2,-57669.6 -42944.6,-57669.6c-23439.6,0 -37368.4,15752.3 -43504.6,31011.1c-2230.4,5450.46 -2813.16,13027.1 -2813.16,20670.3l0,142448l-84817.5,0c0,0 1136.58,-231134 0,-255061l84817.5,0l0,36142.5c11269,-17339.8 31379.2,-42130.4 76427.1,-42130.4c55807.1,0 97635.8,36445.3 97635.8,114784l0,146265l-0.033,-0.692l0.279,0.025Z" style="fill:#d15;"/></g></svg>