<?xml version="1.0" encoding="UTF-8" standalone="no"?><!DOCTYPE svg PUBLIC "-//W3C//DTD SVG 1.1//EN" "http://www.w3.org/Graphics/SVG/1.1/DTD/svg11.dtd"><svg width="100%" height="100%" viewBox="0 0 2381167 2381167" version="1.1" xmlns="http://www.w3.org/2000/svg" xmlns:xlink="http://www.w3.org/1999/xlink" xml:space="preserve" xmlns:serif="http://www.serif.com/" style="fill-rule:evenodd;clip-rule:evenodd;stroke-linejoin:round;stroke-miterlimit:2;"><g><path d="M1.28936e+06,1.06932e+06l0,-3479.75c-711.579,1167.03 -1695.38,2333.77 -2312.64,3479.75l2312.64,0Z" style="fill:#d15;"/><path d="M-0.575,0l0.004,2.38092e+06l2.38092e+06,0l-0.001,-2.38092e+06l-2.38092e+06,0Zm740550,1.978e+06l-353245,-0l-0,-1.06275e+06l353245,0l-0,1.06275e+06Zm-176622,-1.20781e+06l-2334.36,-0c-118496,-0 -195304,-81637.1 -195304,-183677c-0,-104279 79051.7,-183602 199950,-183602c120925,0 195234,79324.2 197549,183602c0,102039 -76624.2,183677 -199861,183677l1.025,-0Zm1.45069e+06,1.20781e+06l-353337,-0l-0,-568579c-0,-142808 -51050.8,-240290 -178936,-240290c-97665,0 -155702,65634.6 -181269,129213c-9293.33,22710.2 -11721.5,54279.6 -11721.5,86126.2l-0,593533l-353406,0c-0,0 4735.75,-963058 -0,-1.06275e+06l353406,0l-0,150594c46954.2,-72249.2 130747,-175543 318446,-175543c232530,0 406816,151855 406816,478267l0,609438l-0.137,-2.884l1.162,0.105l0.058,-0.971Z" style="fill:#fff;"/></g></svg>